<?xml version="1.0" encoding="utf-8"?>
<!-- Generator: Adobe Illustrator 18.0.0, SVG Export Plug-In . SVG Version: 6.00 Build 0)  -->
<!DOCTYPE svg PUBLIC "-//W3C//DTD SVG 1.1//EN" "http://www.w3.org/Graphics/SVG/1.1/DTD/svg11.dtd">
<svg version="1.1" id="Layer_1" xmlns="http://www.w3.org/2000/svg" xmlns:xlink="http://www.w3.org/1999/xlink" x="0px" y="0px"
	 viewBox="0 0 75 75" enable-background="new 0 0 75 75" xml:space="preserve">
<path fill="#1A1A1A" d="M62,28v-5V9.9V6h-3h-4.4H52v3.9V21h-5v-3H27v3h-5V9.9V6h-2.8h-4.4H12v3.9V23v5H6v6h7v15h14v15h20V49h14V34h7
	v-6H62z M55,24V9h4v14v5H47.3H47v-4H55z M15,23V9h4v15h8v4H15V23z M27,40h-3v-6h3V40z M50,40h-3v-6h3V40z"/>
</svg>
