<?xml version="1.0" encoding="utf-8"?>
<!-- Generator: Adobe Illustrator 18.0.0, SVG Export Plug-In . SVG Version: 6.00 Build 0)  -->
<!DOCTYPE svg PUBLIC "-//W3C//DTD SVG 1.1//EN" "http://www.w3.org/Graphics/SVG/1.1/DTD/svg11.dtd">
<svg version="1.1" id="Layer_1" xmlns="http://www.w3.org/2000/svg" xmlns:xlink="http://www.w3.org/1999/xlink" x="0px" y="0px"
	 viewBox="0 0 200 200" enable-background="new 0 0 200 200" xml:space="preserve">
<rect x="79.8" y="74.2" fill="#CCCCCC" width="39.2" height="30.3"/>
<path d="M190.8,72.5c-3.3-3.3-7.8-5.5-12.8-5.5H126v-3.6c0-5.1-2.1-9.7-5.4-13c-3.3-3.3-7.9-5.4-13-5.4H21.4c-5.1,0-9.7,2.1-13,5.4
	C5.1,53.7,3,58.3,3,63.4v30.2c0,5.1,2.1,9.7,5.4,13c3.3,3.3,7.9,5.4,13,5.4H26v17c0,1.5,0.8,2.9,2.2,3.6c1.3,0.7,2.9,0.6,4.2-0.3
	l28-20.2H73v3.7c0,5.1,2.2,9.6,5.6,12.9c3.3,3.3,8.1,5.3,13.2,5.3H139l28,20.3c1.2,0.9,2.7,1,4,0.4c1.3-0.7,2-2,2-3.5V134h4.9
	c5.1,0,9.5-2,12.8-5.3c3.3-3.3,5.2-7.9,5.2-12.9V85.5C196,80.4,194.1,75.8,190.8,72.5z M59,104c-0.8,0-1.7,0.3-2.3,0.8L34,121.2V108
	c0-2.2-1.8-4-4-4h-8.6c-2.9,0-5.4-1.2-7.3-3.1C12.2,99,11,96.5,11,93.6V63.4c0-2.9,1.2-5.4,3.1-7.3c1.9-1.9,4.5-3.1,7.3-3.1h86.2
	c2.9,0,5.4,1.2,7.3,3.1c1.9,1.9,3.1,4.5,3.1,7.3V67H91.7c-5.1,0-9.8,2.1-13.2,5.5c-3.3,3.3-5.6,8-5.6,13.1V104H59z M81,104V85.5
	c0-2.9,1.3-5.5,3.2-7.4c1.9-1.9,4.7-3.1,7.5-3.1H118v18.6c0,2.9-1.2,5.4-3.1,7.3c-1.9,1.9-4.5,3.1-7.3,3.1H81z M188,115.7
	c0,2.9-1,5.4-2.9,7.3c-1.9,1.9-4.3,3-7.2,3h-8.6c-2.2,0-4.3,1.9-4.3,4.1v13.2l-22.5-16.5c-0.7-0.5-1.3-0.8-2.2-0.8H91.7
	c-2.9,0-5.6-1.1-7.5-3c-1.9-1.9-3.2-4.4-3.2-7.3V112h26.6c5.1,0,9.7-2.1,13-5.4c3.3-3.3,5.4-7.9,5.4-13V75h51.9
	c2.9,0,5.3,1.2,7.2,3.1c1.9,1.9,2.9,4.5,2.9,7.4V115.7z" fill="#262626"/>
</svg>
