<?xml version="1.0" encoding="utf-8"?>
<!-- Generator: Adobe Illustrator 18.0.0, SVG Export Plug-In . SVG Version: 6.00 Build 0)  -->
<!DOCTYPE svg PUBLIC "-//W3C//DTD SVG 1.1//EN" "http://www.w3.org/Graphics/SVG/1.1/DTD/svg11.dtd">
<svg version="1.1" id="Layer_1" xmlns="http://www.w3.org/2000/svg" xmlns:xlink="http://www.w3.org/1999/xlink" x="0px" y="0px"
	 viewBox="0 0 60 44" enable-background="new 0 0 60 44" xml:space="preserve">
<g>
	<polygon fill="#017EDA" points="56.6,2.7 13.3,34.6 13.3,27.6 38.4,2.7 	"/>
	<polygon fill="#DB0026" points="6.6,28.2 14.4,2.7 35.6,2.7 8.2,29.9 	"/>
	<path fill="#EBDD40" d="M3.5,23.6v15.6l13.3-7.1c0,0-2.6-5.3-6.6-6.7S3.5,23.6,3.5,23.6z"/>
	<polygon fill="#017EDA" points="3.3,2.7 15.8,2.7 6.9,25.6 3.3,25.6 	"/>
	<polygon fill="#FFFFFF" points="56.6,34.6 13.3,34.6 56.6,2.6 	"/>
	<path d="M58,1.1c-0.3-0.1-0.6-0.2-0.9-0.2c0,0,0,0-0.1,0H3.2c-0.5,0-1,0.2-1.3,0.6C1.5,1.8,1.3,2.3,1.3,2.8v38.1
		c0,0.7,0.4,1.4,1,1.7c0.6,0.3,1.4,0.3,2-0.1l8-5.7h44.8c0.5,0,1-0.2,1.3-0.6c0.4-0.4,0.6-0.8,0.6-1.3V2.8C59,2.1,58.6,1.4,58,1.1z
		 M5.1,25.6C5.1,25.6,5.1,25.6,5.1,25.6c1.2,0,2.4,0.2,3.5,0.7c1.7,0.7,3.3,1.9,4.4,3.4c0.3,0.4,0.6,0.9,0.9,1.4l-8.8,6.2V25.6z
		 M13,24.4c-0.8-0.5-1.6-1-2.4-1.4l0.2,0l5.7-18.4h15.5L13,24.4z M18.4,32.7L55.2,6.5V33H18.5C18.5,32.9,18.5,32.8,18.4,32.7z
		 M17,28.8c-0.4-0.6-0.8-1.2-1.2-1.8L37.2,4.7h13.9L17,28.8z M12.5,4.7L7.2,21.9c-0.7-0.1-1.3-0.2-2-0.2c0,0,0,0-0.1,0V4.7H12.5z"/>
</g>
</svg>
