<?xml version="1.0" encoding="utf-8"?>
<!-- Generator: Adobe Illustrator 18.0.0, SVG Export Plug-In . SVG Version: 6.00 Build 0)  -->
<!DOCTYPE svg PUBLIC "-//W3C//DTD SVG 1.1//EN" "http://www.w3.org/Graphics/SVG/1.1/DTD/svg11.dtd">
<svg version="1.1" id="Layer_1" xmlns="http://www.w3.org/2000/svg" xmlns:xlink="http://www.w3.org/1999/xlink" x="0px" y="0px"
	 viewBox="0 0 75 75" enable-background="new 0 0 75 75" xml:space="preserve">
<polygon fill="#017EDA" points="17.4,17.9 17.4,16.5 10.8,16.5 10.8,11.3 16,11.3 16,17.9 17.4,17.9 17.4,16.5 17.4,17.9 18.8,17.9 
	18.8,8.5 8,8.5 8,19.3 18.8,19.3 18.8,17.9 "/>
<polygon fill="#017EDA" points="17.4,9.9 17.4,11.3 26.2,11.3 26.2,1.1 16,1.1 16,11.3 17.4,11.3 17.4,9.9 18.8,9.9 18.8,3.9 
	23.4,3.9 23.4,8.5 17.4,8.5 17.4,9.9 18.8,9.9 "/>
<polygon fill="#017EDA" points="2,9.9 2,11.3 10.8,11.3 10.8,1.1 0.6,1.1 0.6,11.3 2,11.3 2,9.9 3.4,9.9 3.4,3.9 8,3.9 8,8.5 2,8.5 
	2,9.9 3.4,9.9 "/>
<polygon fill="#017EDA" points="2,26.7 10.8,26.7 10.8,16.5 0.6,16.5 0.6,26.7 2,26.7 3.2,26.1 3.3,26.5 3.4,19.3 8,19.3 8,23.9 
	2,23.9 2.4,24.9 "/>
<rect x="9.4" y="56.9" fill="#FFFFFF" width="8" height="8"/>
<polygon fill="#017EDA" points="17.4,56.9 17.4,55.5 8,55.5 8,66.3 18.8,66.3 18.8,55.5 17.4,55.5 17.4,56.9 16,56.9 16,63.5 
	10.8,63.5 10.8,58.3 17.4,58.3 17.4,56.9 16,56.9 "/>
<rect x="17.4" y="64.9" fill="#FFFFFF" width="7.4" height="7.4"/>
<polygon fill="#017EDA" points="17.4,64.9 17.4,66.3 23.4,66.3 23.4,70.9 18.8,70.9 18.8,64.9 17.4,64.9 17.4,66.3 17.4,64.9 
	16,64.9 16,73.7 26.2,73.7 26.2,63.5 16,63.5 16,64.9 "/>
<rect x="2" y="64.9" fill="#FFFFFF" width="7.4" height="7.4"/>
<polygon fill="#017EDA" points="2,64.9 2,66.3 8,66.3 8,70.9 3.4,70.9 3.4,64.9 2,64.9 2,66.3 2,64.9 0.6,64.9 0.6,73.7 10.8,73.7 
	10.8,63.5 0.6,63.5 0.6,64.9 "/>
<rect x="2" y="49.5" fill="#FFFFFF" width="7.4" height="7.4"/>
<polygon fill="#017EDA" points="2,49.5 2,50.9 8,50.9 8,55.5 3.4,55.5 3.4,49.5 2,49.5 2,50.9 2,49.5 0.6,49.5 0.6,58.3 10.8,58.3 
	10.8,48.1 0.6,48.1 0.6,49.5 "/>
<rect x="57.6" y="9.9" fill="#FFFFFF" width="8" height="8"/>
<polygon fill="#017EDA" points="57.6,17.9 57.6,19.3 67,19.3 67,8.5 56.2,8.5 56.2,19.3 57.6,19.3 57.6,17.9 59,17.9 59,11.3 
	64.2,11.3 64.2,16.5 57.6,16.5 57.6,17.9 59,17.9 "/>
<rect x="50.2" y="2.5" fill="#FFFFFF" width="7.4" height="7.4"/>
<polygon fill="#017EDA" points="57.6,9.9 57.6,8.5 51.6,8.5 51.6,3.9 56.2,3.9 56.2,9.9 57.6,9.9 57.6,8.5 57.6,9.9 59,9.9 59,1.1 
	48.8,1.1 48.8,11.3 59,11.3 59,9.9 "/>
<rect x="65.6" y="2.5" fill="#FFFFFF" width="7.4" height="7.4"/>
<polygon fill="#017EDA" points="73,9.9 73,8.5 67,8.5 67,3.9 71.6,3.9 71.6,9.9 73,9.9 73,8.5 73,9.9 74.4,9.9 74.4,1.1 64.2,1.1 
	64.2,11.3 74.4,11.3 74.4,9.9 "/>
<rect x="65.6" y="17.9" fill="#FFFFFF" width="7.4" height="7.4"/>
<polygon fill="#017EDA" points="73,25.3 73,23.9 67,23.9 67,19.3 71.6,19.3 71.6,25.3 73,25.3 73,23.9 73,25.3 74.4,25.3 74.4,16.5 
	64.2,16.5 64.2,26.7 74.4,26.7 74.4,25.3 "/>
<rect x="57.6" y="56.9" fill="#FFFFFF" width="8" height="8"/>
<polygon fill="#017EDA" points="57.6,56.9 57.6,58.3 64.2,58.3 64.2,63.5 59,63.5 59,56.9 57.6,56.9 57.6,58.3 57.6,56.9 56.2,56.9 
	56.2,66.3 67,66.3 67,55.5 56.2,55.5 56.2,56.9 "/>
<rect x="50.2" y="64.9" fill="#FFFFFF" width="7.4" height="7.4"/>
<polygon fill="#017EDA" points="57.6,64.9 57.6,63.5 48.8,63.5 48.8,73.7 59,73.7 59,63.5 57.6,63.5 57.6,64.9 56.2,64.9 56.2,70.9 
	51.6,70.9 51.6,66.3 57.6,66.3 57.6,64.9 56.2,64.9 "/>
<rect x="65.6" y="64.9" fill="#FFFFFF" width="7.4" height="7.4"/>
<polygon fill="#017EDA" points="73,64.9 73,63.5 64.2,63.5 64.2,73.7 74.4,73.7 74.4,63.5 73,63.5 73,64.9 71.6,64.9 71.6,70.9 
	67,70.9 67,66.3 73,66.3 73,64.9 71.6,64.9 "/>
<rect x="65.6" y="49.5" fill="#FFFFFF" width="7.4" height="7.4"/>
<polygon fill="#017EDA" points="73,49.5 73,48.1 64.2,48.1 64.2,58.3 74.4,58.3 74.4,48.1 73,48.1 73,49.5 71.6,49.5 71.6,55.5 
	67,55.5 67,50.9 73,50.9 73,49.5 71.6,49.5 "/>
</svg>
